<svg height="512" viewBox="0 0 60 60" width="512" xmlns="http://www.w3.org/2000/svg"><g id="021---Cyber-Security" transform="translate(-1)"><path id="Shape" d="m26 40h10c1.6568542 0 3-1.3431458 3-3v-9c0-1.6568542-1.3431458-3-3-3v-2c0-2.7614237-2.2385763-5-5-5s-5 2.2385763-5 5v2c-1.6568542 0-3 1.3431458-3 3v9c0 1.6568542 1.3431458 3 3 3zm2-17c0-1.6568542 1.3431458-3 3-3s3 1.3431458 3 3v2h-6zm-3 5c0-.5522847.4477153-1 1-1h10c.5522847 0 1 .4477153 1 1v9c0 .5522847-.4477153 1-1 1h-10c-.5522847 0-1-.4477153-1-1z"/><path id="Shape" d="m30 34.816v.184c0 .5522847.4477153 1 1 1s1-.4477153 1-1v-.184c1.3775467-.4870363 2.2038721-1.8956662 1.9567957-3.3357331-.2470764-1.4400668-1.4956868-2.492694-2.9567957-2.492694s-2.7097193 1.0526272-2.9567957 2.492694c-.2470764 1.4400669.579249 2.8486968 1.9567957 3.3357331zm1-3.816c.5522847 0 1 .4477153 1 1s-.4477153 1-1 1-1-.4477153-1-1 .4477153-1 1-1z"/><path id="Shape" d="m14 30c0 9.3888407 7.6111593 17 17 17s17-7.6111593 17-17-7.6111593-17-17-17c-9.3845001.010471-16.989529 7.6154999-17 17zm17-15c8.2842712 0 15 6.7157288 15 15s-6.7157288 15-15 15-15-6.7157288-15-15c.0093685-8.2803876 6.7196124-14.9906315 15-15z"/><path id="Shape" d="m51 52c-1.8184116.0068148-3.4034067 1.2393149-3.858 3h-7.142v-6.045c2.2358216-1.0524692 4.2672765-2.4931093 6-4.255.2561473-.2539118.3557194-.6260832.2605819-.973979-.0951375-.3478959-.370242-.6176061-.7199533-.7058366-.3497114-.0882305-.7198383.0186911-.9686286.2798156-1.6978967 1.7358625-3.713409 3.1294414-5.937 4.105-.134293.0533119-.2551669.1356018-.354.241-.011.012-.017.028-.028.042-.0731418.0813567-.1322782.1742852-.175.275-.0196013.0628213-.0326704.1274969-.039.193-.0185732.0566087-.0316339.1148794-.039.174v.018 6.652c0 1.1045695.8954305 2 2 2h7.142c.5232114 2.0075927 2.4967022 3.2800579 4.5412858 2.9281251 2.0445836-.3519327 3.4790448-2.2110063 3.3009012-4.2779954-.1781435-2.066989-1.9095378-3.6532132-3.984187-3.6501297zm0 6c-1.1045695 0-2-.8954305-2-2s.8954305-2 2-2 2 .8954305 2 2-.8954305 2-2 2z"/><path id="Shape" d="m8.858 41h4.832c.008 0 .015-.005.024-.005.0994728-.0044562.1976468-.0243609.291-.059.0466465-.0153031.0921027-.0340203.136-.056.011-.006.024-.008.035-.015s.028-.028.044-.039c.09071-.0559403.1712004-.1269612.238-.21.0117997-.0154352.0228137-.0314555.033-.048.0647343-.0910697.1134348-.1925291.144-.3 0-.015.006-.03.009-.045.0241902-.0722279.0396337-.1470954.046-.223-.005162-.0378042-.0128458-.075221-.023-.112 0-.013 0-.025-.007-.039-.0169675-.1172966-.0552654-.2304959-.113-.334l-.005-.016c-1.0253919-1.7700004-1.7556202-3.6952094-2.162-5.7-.1104569-.5412391-.6387609-.8904569-1.18-.78s-.8904569.6387609-.78 1.18c.3364529 1.6590319.8737432 3.2709027 1.6 4.8h-3.162c-.50356703-1.9503067-2.37878672-3.2219252-4.37700052-2.9681188-1.99821379.2538064-3.49598283 1.9538507-3.49598283 3.9681188s1.49776904 3.7143124 3.49598283 3.9681188c1.9982138.2538064 3.87343349-1.0178121 4.37700052-2.9681188zm-3.858 1c-1.1045695 0-2-.8954305-2-2s.8954305-2 2-2 2 .8954305 2 2-.8954305 2-2 2z"/><path id="Shape" d="m.99999686 19.9999923c-.00250165 2.0117766 1.49237152 3.7110732 3.48804706 3.9650406 1.99567554.2539673 3.86851036-1.0167587 4.36995608-2.9650329h4.832.027c.098674-.0056306.196015-.0255029.289-.059.043936-.014028.0867287-.0314125.128-.052.053306-.028086.1035721-.0615968.15-.1.0843479-.0636631.1573694-.1410795.216-.229.013-.019.03-.033.042-.053 1.2822455-2.2251451 3.0030195-4.1667145 5.058-5.707.2858125-.2143594.4355548-.5649147.3928203-.9196152-.0427344-.3547006-.2714531-.6596589-.6-.8000001-.3285469-.1403411-.7070078-.0947441-.9928203.1196153-2.1044734 1.5852501-3.8913257 3.5529249-5.267 5.8h-4.275c-.50144572-1.9482742-2.37428054-3.2190002-4.36995608-2.9650329-1.99567554.2539674-3.49054871 1.953264-3.48804706 3.9650252zm6.00000314.0000077c0 1.1045695-.8954305 2-2 2s-2-.8954305-2-2 .8954305-2 2-2c.53043298 0 1.03914081.2107137 1.41421356.5857864.37507276.3750728.58578644.8837806.58578644 1.4142136z"/><path id="Shape" d="m57 36c-1.8184116.0068148-3.4034067 1.2393149-3.858 3h-3.163c.7269236-1.5288289 1.2642415-3.1407828 1.6-4.8.1104569-.5415152-.2389848-1.070043-.7805-1.1805-.5415152-.1104569-1.070043.2389848-1.1805.7805-.4056521 2.0047009-1.1352089 3.9299202-2.16 5.7v.013c-.0597561.1057238-.099106.2217382-.116.342 0 .011 0 .021-.007.032-.0103249.0371983-.0186699.0749179-.025.113.0060483.0785614.0214918.1561146.046.231 0 .013 0 .026.008.039.0310509.1078379.0808073.2093816.147.3.01.015.018.03.029.044.0677426.0834365.1488406.1550731.24.212.016.011.026.028.043.038s.024.009.035.015c.0443998.0226639.0905482.0417252.138.057.0929394.0335029.1903305.0530485.289.058.009 0 .016.005.025.005h4.832c.5227338 2.0078882 2.4961533 3.2808794 4.5409531 2.9292268 2.0447997-.3516527 3.4795783-2.2107658 3.301509-4.2779274-.1780694-2.0671615-1.9096476-3.6535184-3.9844621-3.6502994zm0 6c-1.1045695 0-2-.8954305-2-2s.8954305-2 2-2 2 .8954305 2 2-.8954305 2-2 2z"/><path id="Shape" d="m24 48.347v-.017c-.006364-.0561548-.0174023-.1116808-.033-.166-.0070678-.067851-.0208007-.134841-.041-.2-.0420823-.0991553-.1001917-.1907114-.172-.271-.013-.015-.019-.033-.032-.047-.0992074-.105419-.2204102-.1877003-.355-.241-2.6176064-1.1552969-4.943201-2.8822371-6.806-5.054-.2291127-.2820645-.5932076-.4176398-.9510037-.3541182-.3577961.0635217-.6529723.3161413-.7709907.6598341-.1180183.3436928-.0403012.7243576.2029944.9942841 1.9231135 2.238478 4.2931997 4.0499351 6.958 5.318v6.031h-7.142c-.503567-1.9503067-2.3787867-3.2219252-4.3770005-2.9681188-1.99821381.2538064-3.49598285 1.9538507-3.49598285 3.9681188s1.49776904 3.7143124 3.49598285 3.9681188c1.9982138.2538064 3.8734335-1.0178121 4.3770005-2.9681188h7.142c1.1045695 0 2-.8954305 2-2zm-13 9.653c-1.1045695 0-2-.8954305-2-2s.8954305-2 2-2 2 .8954305 2 2-.8954305 2-2 2z"/><path id="Path" d="m34.8 48.62c-2.5082937.5037211-5.0917063.5037211-7.6 0-.3538169-.0811652-.7238327.0357833-.9667331.3055491-.2429004.2697659-.3205344.6499785-.2028329.9933741s.4122519.5960392.769566.6600768c1.0556402.2051203 2.1254307.3291491 3.2.371v8.05c0 .5522847.4477153 1 1 1s1-.4477153 1-1v-8.05c1.0745738-.0417923 2.1443688-.1658217 3.2-.371.5291594-.1213886.8648051-.6428122.7561928-1.174741s-.6218031-.880032-1.1561928-.784259z"/><path id="Shape" d="m22 3h-7.142c-.503567-1.95030672-2.3787867-3.22192522-4.3770005-2.96811879-1.99821381.25380644-3.49598285 1.95385067-3.49598285 3.96811879s1.49776904 3.71431236 3.49598285 3.96811879c1.9982138.25380642 3.8734335-1.01781207 4.3770005-2.96811879h7.142v6.672c0 .04.019.079.024.119.0104699.1035183.0371278.204751.079.3.041549.0891196.0968959.1711274.164.243.0335085.0362871.0699666.0697349.109.1.0489628.0400856.1015187.0755692.157.106.0462576.0256184.0943964.0476821.144.066.0714964.0226959.1452741.0374515.22.044.0328843.0089897.0662774.0160022.1.021.1432861-.0030153.2842051-.0371361.413-.1 1.2182026-.5282197 2.4884997-.9270729 3.79-1.19.5415152-.1104569.8909569-.6389848.7805-1.1805s-.6389848-.89095695-1.1805-.7805c-.9503639.1944563-1.8859764.45509121-2.8.78v-5.2c0-1.1045695-.8954305-2-2-2zm-11 3c-1.1045695 0-2-.8954305-2-2s.8954305-2 2-2 2 .8954305 2 2c0 .53043298-.2107137 1.03914081-.5857864 1.41421356-.3750728.37507276-.8837806.58578644-1.4142136.58578644z"/><path id="Shape" d="m47.142 5c.503567 1.95030672 2.3787867 3.22192521 4.3770005 2.96811879 1.9982138-.25380643 3.4959828-1.95385067 3.4959828-3.96811879s-1.497769-3.71431235-3.4959828-3.96811879c-1.9982138-.25380643-3.8734335 1.01781207-4.3770005 2.96811879h-7.142c-1.1045695 0-2 .8954305-2 2v6.651.018c.0060624.0589878.017783.1172559.035.174.0063296.0655031.0193987.1301787.039.193.0427218.1007148.1018582.1936433.175.275.011.013.017.03.028.042.0988331.1053982.219707.1876881.354.241 2.2231802.9740699 4.2386632 2.3659312 5.937 4.1.2452391.2725163.6199399.388988.9764544.3035204s.6376784-.3591704.7327011-.7132579c.0950227-.3540876-.0113318-.7317846-.2771555-.9842625-1.7327235-1.7618907-3.7641784-3.2025308-6-4.255v-6.045zm3.858-3c1.1045695 0 2 .8954305 2 2s-.8954305 2-2 2-2-.8954305-2-2 .8954305-2 2-2z"/><path id="Path" d="m31 0c-.5522847 0-1 .44771525-1 1v9c0 .5522847.4477153 1 1 1 1.2761642-.0002666 2.5491592.1270329 3.8.38.0658007.0135319.1328227.0202341.2.02.5118821-.001958.9396374-.3901521.991107-.8994437.0514696-.50929165-.289967-.97522112-.791107-1.0795563-1.0556312-.20517832-2.1254262-.32920767-3.2-.371v-8.05c0-.55228475-.4477153-1-1-1z"/><path id="Shape" d="m53.142 21c.503567 1.9503067 2.3787867 3.2219252 4.3770005 2.9681188s3.4959828-1.9538507 3.4959828-3.9681188-1.497769-3.7143124-3.4959828-3.9681188-3.8734335 1.0178121-4.3770005 2.9681188h-4.832c-.019 0-.034.01-.052.01-.0579739.0062625-.1152277.0179811-.171.035-.0821509.0162164-.1618271.0431113-.237.08-.008 0-.018 0-.027.01s-.026.027-.043.038c-.0911594.0569269-.1722574.1285635-.24.212-.011.014-.019.029-.029.044-.0661927.0906184-.1159491.1921621-.147.3 0 .013 0 .026-.008.039-.0245865.0752075-.040031.1531011-.046.232.0053066.0383632.0126503.076417.022.114 0 .011.005.021.007.032.016894.1202618.0562439.2362762.116.342v.013c1.6677741 2.8879034 2.5455464 6.1641152 2.545 9.499 0 .5522847.4477153 1 1 1h9c.5522847 0 1-.4477153 1-1s-.4477153-1-1-1h-8.033c-.131111-2.7726811-.8108951-5.4918174-2-8zm3.858-3c1.1045695 0 2 .8954305 2 2s-.8954305 2-2 2-2-.8954305-2-2 .8954305-2 2-2z"/><path id="Path" d="m2 31h9c.5522847 0 1-.4477153 1-1-.0021135-2.0205277.3182486-4.0284456.949-5.948.1116455-.3394023.0337412-.7125852-.2043671-.9789741-.2381082-.266389-.6002462-.3855134-.95-.3125001-.3497537.0730134-.6339874.3270719-.7456329.6664742-.5874641 1.8033629-.9272371 3.6781696-1.01 5.573h-8.039c-.55228475 0-1 .4477153-1 1s.44771525 1 1 1z"/></g></svg>